<svg xmlns="http://www.w3.org/2000/svg" viewBox="0 0 64 64" width="64" height="64" role="img" aria-label="Cube algorithm trainer"><title>My Cubing Algs</title><defs><linearGradient id="g" gradientUnits="userSpaceOnUse" x1="9" y1="9" x2="55" y2="55"><stop offset="0" stop-color="#009b48"/><stop offset="0.52" stop-color="#ffd500"/><stop offset="1" stop-color="#ff5900"/></linearGradient></defs><rect x="0.5" y="0.5" width="63" height="63" rx="14" ry="14" fill="#26263a" stroke="rgba(255,255,255,0.12)" stroke-width="1"/><rect x="9.00" y="9.00" width="13.20" height="13.20" rx="2.6" ry="2.6" fill="url(#g)"/><rect x="25.40" y="9.00" width="13.20" height="13.20" rx="2.6" ry="2.6" fill="url(#g)"/><rect x="41.80" y="9.00" width="13.20" height="13.20" rx="2.6" ry="2.6" fill="url(#g)"/><rect x="9.00" y="25.40" width="13.20" height="13.20" rx="2.6" ry="2.6" fill="url(#g)"/><rect x="25.40" y="25.40" width="13.20" height="13.20" rx="2.6" ry="2.6" fill="url(#g)"/><rect x="41.80" y="25.40" width="13.20" height="13.20" rx="2.6" ry="2.6" fill="url(#g)"/><rect x="9.00" y="41.80" width="13.20" height="13.20" rx="2.6" ry="2.6" fill="url(#g)"/><rect x="25.40" y="41.80" width="13.20" height="13.20" rx="2.6" ry="2.6" fill="url(#g)"/><rect x="41.80" y="41.80" width="13.20" height="13.20" rx="2.6" ry="2.6" fill="url(#g)"/></svg>
